<mxfile host="app.diagrams.net" modified="2023-02-11T16:51:54.090Z" agent="5.0 (Macintosh; Intel Mac OS X 10_15_7) AppleWebKit/537.36 (KHTML, like Gecko) Chrome/107.0.0.0 Safari/537.36" etag="z30KrC7TLsnD8wKjdDMy" version="20.8.19" type="github">
  <diagram name="第 1 页" id="vSXPesGRcccRzlFdrcXZ">
    <mxGraphModel dx="1026" dy="683" grid="1" gridSize="10" guides="1" tooltips="1" connect="1" arrows="1" fold="1" page="1" pageScale="1" pageWidth="827" pageHeight="1169" math="0" shadow="0">
      <root>
        <mxCell id="0" />
        <mxCell id="1" parent="0" />
        <mxCell id="cHXS6WIh2ep5NLIJgydF-18" value="" style="edgeStyle=orthogonalEdgeStyle;rounded=0;orthogonalLoop=1;jettySize=auto;html=1;fontSize=16;" edge="1" parent="1" source="cHXS6WIh2ep5NLIJgydF-1" target="cHXS6WIh2ep5NLIJgydF-17">
          <mxGeometry relative="1" as="geometry" />
        </mxCell>
        <mxCell id="cHXS6WIh2ep5NLIJgydF-1" value="&lt;font size=&quot;3&quot;&gt;流水号&lt;/font&gt;" style="rounded=1;whiteSpace=wrap;html=1;fillColor=#ffe6cc;strokeColor=#d79b00;" vertex="1" parent="1">
          <mxGeometry x="160" y="220" width="120" height="60" as="geometry" />
        </mxCell>
        <mxCell id="cHXS6WIh2ep5NLIJgydF-9" value="" style="edgeStyle=orthogonalEdgeStyle;rounded=0;orthogonalLoop=1;jettySize=auto;html=1;fontSize=18;" edge="1" parent="1" source="cHXS6WIh2ep5NLIJgydF-4" target="cHXS6WIh2ep5NLIJgydF-5">
          <mxGeometry relative="1" as="geometry" />
        </mxCell>
        <mxCell id="cHXS6WIh2ep5NLIJgydF-4" value="&lt;font size=&quot;3&quot;&gt;检查UC&lt;/font&gt;" style="rounded=1;whiteSpace=wrap;html=1;" vertex="1" parent="1">
          <mxGeometry x="160" y="433" width="120" height="60" as="geometry" />
        </mxCell>
        <mxCell id="cHXS6WIh2ep5NLIJgydF-10" value="" style="edgeStyle=orthogonalEdgeStyle;rounded=0;orthogonalLoop=1;jettySize=auto;html=1;fontSize=18;" edge="1" parent="1" source="cHXS6WIh2ep5NLIJgydF-5" target="cHXS6WIh2ep5NLIJgydF-6">
          <mxGeometry relative="1" as="geometry" />
        </mxCell>
        <mxCell id="cHXS6WIh2ep5NLIJgydF-5" value="&lt;font size=&quot;3&quot;&gt;标记奖品已抽中&lt;/font&gt;" style="rounded=1;whiteSpace=wrap;html=1;" vertex="1" parent="1">
          <mxGeometry x="160" y="533" width="120" height="60" as="geometry" />
        </mxCell>
        <mxCell id="cHXS6WIh2ep5NLIJgydF-15" value="" style="edgeStyle=orthogonalEdgeStyle;rounded=0;orthogonalLoop=1;jettySize=auto;html=1;fontSize=14;" edge="1" parent="1" source="cHXS6WIh2ep5NLIJgydF-6" target="cHXS6WIh2ep5NLIJgydF-14">
          <mxGeometry relative="1" as="geometry" />
        </mxCell>
        <mxCell id="cHXS6WIh2ep5NLIJgydF-6" value="&lt;font size=&quot;3&quot;&gt;道聚城&lt;br&gt;购买奖品&lt;/font&gt;" style="rounded=1;whiteSpace=wrap;html=1;" vertex="1" parent="1">
          <mxGeometry x="160" y="633" width="120" height="60" as="geometry" />
        </mxCell>
        <mxCell id="cHXS6WIh2ep5NLIJgydF-11" value="&lt;span style=&quot;font-size: 24px;&quot;&gt;业界方案&lt;/span&gt;" style="text;html=1;align=center;verticalAlign=middle;resizable=0;points=[];autosize=1;strokeColor=none;fillColor=none;fontSize=18;" vertex="1" parent="1">
          <mxGeometry x="160" y="160" width="120" height="40" as="geometry" />
        </mxCell>
        <mxCell id="cHXS6WIh2ep5NLIJgydF-14" value="&lt;div style=&quot;border-color: var(--border-color);&quot;&gt;&lt;font style=&quot;font-size: 16px;&quot;&gt;缓存&lt;/font&gt;&lt;/div&gt;&lt;div style=&quot;border-color: var(--border-color);&quot;&gt;&lt;font size=&quot;3&quot;&gt;流水号：结果&lt;/font&gt;&lt;/div&gt;" style="rounded=1;whiteSpace=wrap;html=1;" vertex="1" parent="1">
          <mxGeometry x="160" y="733" width="120" height="60" as="geometry" />
        </mxCell>
        <mxCell id="cHXS6WIh2ep5NLIJgydF-19" value="" style="edgeStyle=orthogonalEdgeStyle;rounded=0;orthogonalLoop=1;jettySize=auto;html=1;fontSize=16;" edge="1" parent="1" source="cHXS6WIh2ep5NLIJgydF-17" target="cHXS6WIh2ep5NLIJgydF-4">
          <mxGeometry relative="1" as="geometry" />
        </mxCell>
        <mxCell id="cHXS6WIh2ep5NLIJgydF-17" value="流水号是否&lt;br&gt;有结果缓存" style="rhombus;whiteSpace=wrap;html=1;rounded=1;fontSize=16;" vertex="1" parent="1">
          <mxGeometry x="150" y="323" width="140" height="80" as="geometry" />
        </mxCell>
        <mxCell id="cHXS6WIh2ep5NLIJgydF-20" value="&lt;span style=&quot;font-size: 24px;&quot;&gt;优化后的方案&lt;/span&gt;" style="text;html=1;align=center;verticalAlign=middle;resizable=0;points=[];autosize=1;strokeColor=none;fillColor=none;fontSize=18;" vertex="1" parent="1">
          <mxGeometry x="389" y="160" width="170" height="40" as="geometry" />
        </mxCell>
        <mxCell id="cHXS6WIh2ep5NLIJgydF-21" value="" style="edgeStyle=orthogonalEdgeStyle;rounded=0;orthogonalLoop=1;jettySize=auto;html=1;fontSize=16;" edge="1" parent="1" source="cHXS6WIh2ep5NLIJgydF-22" target="cHXS6WIh2ep5NLIJgydF-31">
          <mxGeometry relative="1" as="geometry" />
        </mxCell>
        <mxCell id="cHXS6WIh2ep5NLIJgydF-22" value="&lt;font size=&quot;3&quot;&gt;抽奖序号&lt;/font&gt;" style="rounded=1;whiteSpace=wrap;html=1;fillColor=#f8cecc;strokeColor=#b85450;" vertex="1" parent="1">
          <mxGeometry x="414" y="220" width="120" height="60" as="geometry" />
        </mxCell>
        <mxCell id="cHXS6WIh2ep5NLIJgydF-23" value="" style="edgeStyle=orthogonalEdgeStyle;rounded=0;orthogonalLoop=1;jettySize=auto;html=1;fontSize=18;" edge="1" parent="1" source="cHXS6WIh2ep5NLIJgydF-24" target="cHXS6WIh2ep5NLIJgydF-26">
          <mxGeometry relative="1" as="geometry" />
        </mxCell>
        <mxCell id="cHXS6WIh2ep5NLIJgydF-24" value="&lt;font size=&quot;3&quot;&gt;检查UC&lt;/font&gt;" style="rounded=1;whiteSpace=wrap;html=1;" vertex="1" parent="1">
          <mxGeometry x="414" y="433" width="120" height="60" as="geometry" />
        </mxCell>
        <mxCell id="cHXS6WIh2ep5NLIJgydF-25" value="" style="edgeStyle=orthogonalEdgeStyle;rounded=0;orthogonalLoop=1;jettySize=auto;html=1;fontSize=18;" edge="1" parent="1" source="cHXS6WIh2ep5NLIJgydF-26" target="cHXS6WIh2ep5NLIJgydF-28">
          <mxGeometry relative="1" as="geometry" />
        </mxCell>
        <mxCell id="cHXS6WIh2ep5NLIJgydF-26" value="&lt;div style=&quot;border-color: var(--border-color);&quot;&gt;&lt;font style=&quot;border-color: var(--border-color); font-size: 16px;&quot;&gt;缓存&lt;/font&gt;&lt;/div&gt;&lt;div style=&quot;border-color: var(--border-color);&quot;&gt;&lt;font style=&quot;border-color: var(--border-color);&quot; size=&quot;3&quot;&gt;序号：结果&lt;/font&gt;&lt;/div&gt;" style="rounded=1;whiteSpace=wrap;html=1;" vertex="1" parent="1">
          <mxGeometry x="414" y="533" width="120" height="60" as="geometry" />
        </mxCell>
        <mxCell id="cHXS6WIh2ep5NLIJgydF-28" value="&lt;font size=&quot;3&quot;&gt;道聚城&lt;br&gt;购买奖品&lt;/font&gt;" style="rounded=1;whiteSpace=wrap;html=1;" vertex="1" parent="1">
          <mxGeometry x="414" y="633" width="120" height="60" as="geometry" />
        </mxCell>
        <mxCell id="cHXS6WIh2ep5NLIJgydF-30" value="" style="edgeStyle=orthogonalEdgeStyle;rounded=0;orthogonalLoop=1;jettySize=auto;html=1;fontSize=16;" edge="1" parent="1" source="cHXS6WIh2ep5NLIJgydF-31" target="cHXS6WIh2ep5NLIJgydF-24">
          <mxGeometry relative="1" as="geometry" />
        </mxCell>
        <mxCell id="cHXS6WIh2ep5NLIJgydF-31" value="序号是否&lt;br&gt;有结果缓存" style="rhombus;whiteSpace=wrap;html=1;rounded=1;fontSize=16;" vertex="1" parent="1">
          <mxGeometry x="404" y="323" width="140" height="80" as="geometry" />
        </mxCell>
      </root>
    </mxGraphModel>
  </diagram>
</mxfile>
